<svg xmlns="http://www.w3.org/2000/svg" width="211" height="148" viewBox="0 0 211 148">
<g>
<path d="M 167.00 0.00 C142.80,0.00 123.00,0.23 123.00,0.50 C123.00,0.78 123.89,2.67 124.99,4.71 C126.39,7.34 126.94,10.20 126.88,14.58 C126.76,22.73 127.37,24.31 131.78,27.25 C138.87,31.97 143.30,36.94 146.89,44.17 C150.31,51.06 150.72,51.48 154.70,52.27 C160.28,53.37 161.42,56.38 157.53,59.73 C155.61,61.38 154.17,61.87 152.65,61.39 C148.88,60.18 147.59,60.45 147.23,62.50 C146.47,66.90 146.18,67.16 143.77,65.63 C140.28,63.42 135.56,62.77 131.32,63.91 C127.71,64.89 115.99,72.59 114.53,74.96 C113.43,76.73 106.26,80.00 103.47,80.00 C102.04,80.00 99.98,79.52 98.89,78.94 C96.97,77.91 96.98,77.81 99.43,74.90 C109.16,63.34 100.53,46.27 83.98,44.31 C81.19,43.98 79.18,43.25 79.29,42.62 C79.43,41.90 77.52,41.51 74.00,41.53 C69.57,41.55 67.42,42.20 62.95,44.89 C56.41,48.82 55.77,51.21 58.94,59.85 C60.68,64.59 61.80,66.62 65.46,71.58 C66.11,72.47 65.85,73.51 64.63,74.86 C62.45,77.27 62.84,81.35 65.30,81.82 C67.91,82.32 70.00,80.17 70.00,76.99 C70.00,75.12 70.61,74.07 71.91,73.73 C73.36,73.35 74.73,74.54 77.54,78.62 C79.57,81.58 81.88,84.00 82.65,84.00 C83.43,84.00 85.74,83.30 87.78,82.45 C91.45,80.91 91.53,80.93 93.75,83.70 C97.46,88.34 98.04,98.00 94.60,98.00 C93.86,98.00 92.67,98.70 91.96,99.55 C90.96,100.75 90.50,100.82 89.90,99.83 C89.47,99.14 89.60,97.98 90.20,97.26 C91.63,95.54 88.32,89.11 85.44,87.99 C84.30,87.55 79.12,87.18 73.94,87.16 C68.28,87.14 63.21,86.58 61.28,85.77 C58.19,84.46 52.52,77.58 48.30,70.04 C46.65,67.09 45.88,66.62 42.45,66.57 C38.79,66.50 38.48,66.28 38.20,63.41 C37.82,59.50 39.90,57.62 45.25,57.08 C45.66,57.03 46.00,55.34 46.00,53.32 C46.00,48.02 49.42,41.71 55.01,36.68 C58.98,33.11 61.50,31.85 68.99,29.72 C74.01,28.28 78.77,27.36 79.56,27.66 C84.72,29.64 89.22,24.30 89.62,15.70 C89.81,11.61 90.66,8.55 92.45,5.50 C93.85,3.10 95.00,0.89 95.00,0.57 C95.00,0.26 73.62,0.00 47.50,0.00 L 167.00 0.00 ZM 1.25 108.58 C0.31,109.02 0.00,114.03 0.00,128.58 L 0.00 26.89 L 5.60 23.95 C13.11,20.00 18.52,20.00 25.44,23.97 C32.12,27.79 33.31,29.22 35.88,36.57 C38.62,44.41 38.56,45.80 35.15,53.33 C32.15,59.95 28.15,64.00 24.62,64.00 C20.19,64.00 7.41,60.80 4.40,58.94 C2.68,57.87 0.98,57.00 0.63,57.00 C0.28,57.00 0.00,68.21 0.00,81.92 C0.00,100.87 0.30,106.97 1.25,107.42 C2.25,107.88 2.25,108.12 1.25,108.58 ZM 211.00 144.50 C211.00,141.11 210.88,141.00 207.18,141.00 C202.84,141.00 195.00,136.08 191.97,131.45 C189.13,127.12 188.44,116.18 190.58,109.38 C192.09,104.59 193.04,103.30 196.82,100.90 C199.28,99.34 203.47,97.34 206.14,96.45 L 211.00 94.84 L 211.00 144.50 ZM 126.00 62.19 C129.83,62.76 131.84,62.01 135.09,58.76 C136.99,56.86 137.86,55.15 137.51,54.03 C137.20,53.07 137.64,51.71 138.48,51.02 C140.75,49.13 140.33,46.68 137.25,43.83 C133.79,40.63 128.08,37.83 126.72,38.67 C126.11,39.05 125.99,38.82 126.43,38.11 C127.25,36.79 122.68,30.20 120.33,29.30 C118.73,28.68 112.00,34.60 112.00,36.62 C112.00,37.30 113.18,38.78 114.61,39.91 C116.89,41.70 117.14,42.45 116.54,45.63 C116.06,48.20 116.25,49.54 117.18,50.13 C118.05,50.69 117.45,50.97 115.39,50.98 C113.17,51.00 110.98,49.85 107.74,47.00 C100.91,40.99 98.66,42.10 103.44,49.12 C106.15,53.11 113.89,58.48 118.50,59.57 C120.15,59.96 121.95,60.62 122.50,61.04 C123.05,61.46 124.62,61.98 126.00,62.19 ZM 117.45 111.84 C114.08,113.38 111.88,113.30 109.40,111.57 C108.28,110.78 106.16,110.27 104.70,110.43 L 102.04 110.72 L 104.97 107.38 C108.22,103.67 109.54,98.70 108.67,93.36 C108.22,90.60 108.37,90.06 109.36,90.89 C110.81,92.09 117.81,87.72 124.50,81.45 C131.30,75.08 139.59,69.61 137.62,72.80 C136.86,74.04 138.22,75.56 141.49,77.10 C143.13,77.88 144.64,79.35 144.83,80.38 C145.03,81.40 144.76,81.97 144.23,81.64 C143.70,81.31 142.46,81.94 141.46,83.04 C140.47,84.13 137.98,85.30 135.92,85.63 C132.62,86.16 132.10,86.63 131.54,89.66 C131.18,91.54 131.17,93.97 131.51,95.04 C131.98,96.53 131.50,97.24 129.50,98.00 C126.76,99.04 124.22,98.25 120.81,95.27 C119.88,94.46 118.59,93.97 117.94,94.19 C117.29,94.40 118.79,96.66 121.35,99.29 C124.34,102.37 125.37,104.00 124.32,104.00 C122.45,104.00 120.08,106.81 120.03,109.09 C120.01,109.96 118.85,111.20 117.45,111.84 ZM 44.93 93.37 C40.61,98.86 32.00,95.67 32.00,88.57 C32.00,84.32 35.76,81.00 40.58,81.00 C46.56,81.00 49.06,88.11 44.93,93.37 ZM 10.00 47.00 C12.48,49.48 18.60,49.67 21.17,47.35 C24.06,44.74 23.62,38.63 20.37,36.07 C16.87,33.32 13.45,33.45 10.45,36.45 C7.42,39.48 7.22,44.22 10.00,47.00 ZM 125.05 148.00 L 123.45 144.90 C122.12,142.33 122.05,141.29 123.06,138.86 C125.29,133.48 130.53,132.44 134.65,136.56 C137.21,139.12 137.45,141.77 135.53,146.25 C134.83,147.90 136.98,148.00 172.89,148.00 L 125.05 148.00 ZM 183.14 90.17 C179.36,93.55 178.11,93.66 174.63,90.93 C172.62,89.34 172.00,87.97 172.00,85.08 C172.00,75.90 183.34,75.54 185.63,84.64 C186.18,86.86 185.74,87.84 183.14,90.17 ZM 179.47 19.03 C175.77,23.12 168.00,20.35 168.00,14.94 C168.00,11.21 171.17,8.00 174.85,8.00 C180.39,8.00 183.26,14.85 179.47,19.03 ZM 206.82 125.13 C208.58,126.71 210.25,128.00 210.52,128.00 C210.78,128.00 211.00,124.18 211.00,119.50 C211.00,110.24 210.30,109.32 205.91,112.87 C202.30,115.80 202.71,121.46 206.82,125.13 ZM 176.36 86.50 C176.68,87.32 177.57,88.00 178.35,88.00 C179.12,88.00 180.32,87.32 181.00,86.50 C181.99,85.30 181.99,84.70 181.00,83.50 C180.32,82.68 179.12,82.00 178.35,82.00 C176.64,82.00 175.57,84.44 176.36,86.50 ZM 38.06 91.04 C40.06,92.27 42.13,90.94 41.80,88.62 C41.61,87.27 40.78,86.50 39.51,86.50 C37.23,86.50 36.15,89.86 38.06,91.04 ZM 128.05 142.56 C128.97,143.67 129.59,143.75 130.63,142.89 C132.63,141.23 132.30,139.00 130.06,139.00 C127.50,139.00 126.53,140.72 128.05,142.56 ZM 193.89 59.37 C194.74,60.40 194.70,61.00 193.73,61.81 C192.00,63.24 189.54,61.65 190.32,59.60 C191.08,57.64 192.38,57.55 193.89,59.37 ZM 173.00 14.56 C173.00,16.26 175.58,16.49 176.57,14.89 C177.32,13.67 175.08,11.83 173.80,12.62 C173.36,12.90 173.00,13.77 173.00,14.56 ZM 136.62 81.20 C137.32,82.33 138.76,82.19 139.55,80.91 C139.92,80.31 139.71,79.31 139.07,78.67 C138.20,77.80 137.70,77.87 137.02,78.96 C136.53,79.75 136.35,80.76 136.62,81.20 ZM 24.00 55.53 C24.00,56.34 24.67,57.00 25.50,57.00 C26.33,57.00 27.00,56.60 27.00,56.11 C27.00,55.62 26.33,54.95 25.50,54.64 C24.59,54.29 24.00,54.64 24.00,55.53 ZM 113.00 108.00 C113.00,108.55 113.68,109.00 114.50,109.00 C115.32,109.00 116.00,108.55 116.00,108.00 C116.00,107.45 115.32,107.00 114.50,107.00 C113.68,107.00 113.00,107.45 113.00,108.00 ZM 154.00 57.00 C154.00,57.55 154.42,58.00 154.94,58.00 C155.46,58.00 156.16,57.55 156.50,57.00 C156.84,56.45 156.42,56.00 155.56,56.00 C154.70,56.00 154.00,56.45 154.00,57.00 ZM 90.50 98.00 C90.16,98.55 90.36,99.00 90.94,99.00 C91.52,99.00 92.00,98.55 92.00,98.00 C92.00,97.45 91.80,97.00 91.56,97.00 C91.32,97.00 90.84,97.45 90.50,98.00 Z" fill="rgb(53,47,44)"/>
<path d="M 1.25 108.58 C2.25,108.12 2.25,107.88 1.25,107.42 C0.30,106.97 0.00,100.87 0.00,81.92 C0.00,68.21 0.28,57.00 0.63,57.00 C0.98,57.00 2.68,57.87 4.40,58.94 C7.41,60.80 20.19,64.00 24.62,64.00 C28.15,64.00 32.15,59.95 35.15,53.33 C38.56,45.80 38.62,44.41 35.88,36.57 C33.31,29.22 32.12,27.79 25.44,23.97 C18.52,20.00 13.11,20.00 5.60,23.95 L 0.00 26.89 L 0.00 0.00 L 47.50 0.00 C73.62,0.00 95.00,0.26 95.00,0.57 C95.00,0.89 93.85,3.10 92.45,5.50 C90.66,8.55 89.81,11.61 89.62,15.70 C89.22,24.30 84.72,29.64 79.56,27.66 C78.77,27.36 74.01,28.28 68.99,29.72 C61.50,31.85 58.98,33.11 55.01,36.68 C49.42,41.71 46.00,48.02 46.00,53.32 C46.00,55.34 45.66,57.03 45.25,57.08 C39.90,57.62 37.82,59.50 38.20,63.41 C38.48,66.28 38.79,66.50 42.45,66.57 C45.88,66.62 46.65,67.09 48.30,70.04 C52.52,77.58 58.19,84.46 61.28,85.77 C63.21,86.58 68.28,87.14 73.94,87.16 C79.12,87.18 84.30,87.55 85.44,87.99 C88.32,89.11 91.63,95.54 90.20,97.26 C89.60,97.98 89.47,99.14 89.90,99.83 C90.50,100.82 90.96,100.75 91.96,99.55 C92.67,98.70 93.86,98.00 94.60,98.00 C95.04,98.00 95.41,97.84 95.72,97.56 C93.76,101.42 89.43,104.00 83.61,104.00 C78.03,104.00 64.73,96.58 59.11,90.34 C54.70,85.44 52.00,83.73 52.00,85.84 C52.00,86.31 53.89,89.50 56.19,92.93 C62.25,101.95 71.90,110.45 78.83,112.87 C85.85,115.31 90.31,115.46 96.28,113.42 C99.29,112.39 101.89,110.71 103.92,108.57 L 102.04 110.72 L 104.70 110.43 C106.16,110.27 108.28,110.78 109.40,111.57 C111.88,113.30 114.08,113.38 117.45,111.84 C118.85,111.20 120.01,109.96 120.03,109.09 C120.08,106.81 122.45,104.00 124.32,104.00 C125.37,104.00 124.34,102.37 121.35,99.29 C119.94,97.84 118.85,96.50 118.26,95.56 C118.90,96.58 120.27,98.18 122.38,100.26 C128.90,106.67 133.38,108.04 141.07,105.99 C150.18,103.57 158.30,91.38 156.49,82.85 C155.20,76.75 151.14,70.60 146.22,67.32 C142.97,65.15 140.25,63.91 137.58,63.49 C139.82,63.76 141.96,64.49 143.77,65.63 C146.18,67.16 146.47,66.90 147.23,62.50 C147.59,60.45 148.88,60.18 152.65,61.39 C154.17,61.87 155.61,61.38 157.53,59.73 C161.42,56.38 160.28,53.37 154.70,52.27 C150.72,51.48 150.31,51.06 146.89,44.17 C143.30,36.94 138.87,31.97 131.78,27.25 C127.37,24.31 126.76,22.73 126.88,14.58 C126.94,10.20 126.39,7.34 124.99,4.71 C123.89,2.67 123.00,0.78 123.00,0.50 C123.00,0.23 142.80,0.00 167.00,0.00 L 211.00 0.00 L 211.00 94.84 L 206.14 96.45 C203.47,97.34 199.28,99.34 196.82,100.90 C193.04,103.30 192.09,104.59 190.58,109.38 C188.44,116.18 189.13,127.12 191.97,131.45 C195.00,136.08 202.84,141.00 207.18,141.00 C210.88,141.00 211.00,141.11 211.00,144.50 L 211.00 148.00 L 172.89 148.00 C136.98,148.00 134.83,147.90 135.53,146.25 C137.45,141.77 137.21,139.12 134.65,136.56 C130.53,132.44 125.29,133.48 123.06,138.86 C122.05,141.29 122.12,142.33 123.45,144.90 L 125.05 148.00 L 0.00 148.00 L 0.00 128.58 C0.00,114.03 0.31,109.02 1.25,108.58 ZM 126.19 98.34 C127.31,98.54 128.39,98.42 129.50,98.00 C131.50,97.24 131.98,96.53 131.51,95.04 C131.17,93.97 131.18,91.54 131.54,89.66 C132.10,86.63 132.62,86.16 135.92,85.63 C137.98,85.30 140.47,84.13 141.46,83.04 C142.46,81.94 143.70,81.31 144.23,81.64 C144.76,81.97 145.03,81.40 144.83,80.38 C144.64,79.35 143.13,77.88 141.49,77.10 C138.22,75.56 136.86,74.04 137.62,72.80 C137.78,72.55 137.87,72.35 137.90,72.21 C138.50,72.07 139.07,72.00 139.61,72.00 C143.63,72.00 145.00,74.09 144.99,80.18 C144.99,86.97 143.08,92.19 139.32,95.74 C135.72,99.13 130.87,100.02 126.19,98.34 ZM 44.93 93.37 C49.06,88.11 46.56,81.00 40.58,81.00 C35.76,81.00 32.00,84.32 32.00,88.57 C32.00,95.67 40.61,98.86 44.93,93.37 ZM 183.14 90.17 C185.74,87.84 186.18,86.86 185.63,84.64 C183.34,75.54 172.00,75.90 172.00,85.08 C172.00,87.97 172.62,89.34 174.63,90.93 C178.11,93.66 179.36,93.55 183.14,90.17 ZM 179.47 19.03 C183.26,14.85 180.39,8.00 174.85,8.00 C171.17,8.00 168.00,11.21 168.00,14.94 C168.00,20.35 175.77,23.12 179.47,19.03 ZM 193.89 59.37 C192.38,57.55 191.08,57.64 190.32,59.60 C189.54,61.65 192.00,63.24 193.73,61.81 C194.70,61.00 194.74,60.40 193.89,59.37 ZM 22.64 86.31 C23.44,87.11 25.00,86.20 25.00,84.94 C25.00,84.42 24.33,84.00 23.50,84.00 C21.95,84.00 21.51,85.18 22.64,86.31 ZM 90.50 98.00 C90.84,97.45 91.32,97.00 91.56,97.00 C91.80,97.00 92.00,97.45 92.00,98.00 C92.00,98.55 91.52,99.00 90.94,99.00 C90.36,99.00 90.16,98.55 90.50,98.00 ZM 96.88 92.98 C96.77,89.91 95.69,86.12 93.75,83.70 C93.05,82.82 92.56,82.23 92.11,81.86 C93.26,82.40 94.17,83.83 95.41,86.45 C96.48,88.71 96.95,90.93 96.88,92.98 ZM 104.94 107.42 C108.05,103.55 109.51,98.53 108.67,93.36 C109.54,98.70 108.22,103.67 104.97,107.38 ZM 118.16 95.39 C117.77,94.72 117.67,94.28 117.94,94.19 C118.59,93.97 119.88,94.46 120.81,95.27 C120.92,95.36 121.02,95.46 121.13,95.55 C118.26,93.77 117.26,93.84 118.16,95.39 ZM 84.23 83.69 C83.53,83.89 82.97,84.00 82.65,84.00 C82.39,84.00 81.95,83.72 81.40,83.23 C82.26,83.80 83.11,83.92 84.23,83.69 ZM 132.53 74.80 C130.11,76.56 127.19,78.94 124.50,81.45 C127.63,78.52 130.26,76.33 132.53,74.80 Z" fill="rgb(6,26,50)"/>
<path d="M 96.88 92.98 C96.95,90.93 96.48,88.71 95.41,86.45 C94.17,83.83 93.26,82.40 92.11,81.86 C91.13,81.07 90.30,81.39 87.78,82.45 C86.56,82.95 85.25,83.41 84.23,83.69 C83.11,83.92 82.26,83.80 81.40,83.23 C80.34,82.29 78.88,80.57 77.54,78.62 C74.73,74.54 73.36,73.35 71.91,73.73 C70.61,74.07 70.00,75.12 70.00,76.99 C70.00,80.17 67.91,82.32 65.30,81.82 C62.84,81.35 62.45,77.27 64.63,74.86 C65.85,73.51 66.11,72.47 65.46,71.58 C61.80,66.62 60.68,64.59 58.94,59.85 C55.77,51.21 56.41,48.82 62.95,44.89 C67.42,42.20 69.57,41.55 74.00,41.53 C77.52,41.51 79.43,41.90 79.29,42.62 C79.18,43.25 81.19,43.98 83.98,44.31 C85.11,44.45 86.21,44.65 87.26,44.92 C82.22,43.89 76.98,44.88 71.31,47.91 C67.90,49.73 64.36,52.05 63.45,53.06 C61.88,54.79 62.00,55.16 65.51,59.45 C67.56,61.95 69.66,64.00 70.17,64.00 C70.69,64.00 72.55,62.64 74.30,60.98 C76.06,59.33 79.73,56.85 82.45,55.48 C90.66,51.36 94.45,52.43 94.45,58.87 C94.45,61.41 93.74,63.64 92.48,65.06 C90.48,67.30 79.56,73.00 77.25,73.00 C75.89,73.00 75.59,74.26 76.70,75.36 C77.08,75.75 77.97,75.84 78.68,75.57 C79.39,75.30 84.14,74.78 89.24,74.41 C96.37,73.90 98.99,73.30 100.64,71.80 C101.75,70.79 102.53,69.53 103.00,68.10 C102.39,70.47 101.22,72.78 99.43,74.90 C96.98,77.81 96.97,77.91 98.89,78.94 C99.98,79.52 102.04,80.00 103.47,80.00 C106.26,80.00 113.43,76.73 114.53,74.96 C115.23,73.82 118.30,71.45 121.71,69.18 L 121.69 69.20 L 118.88 71.50 L 130.19 71.21 C136.41,71.05 142.50,70.42 143.72,69.81 C145.42,68.96 146.35,69.02 147.72,70.06 C148.70,70.81 148.17,69.97 146.55,68.20 C145.75,67.32 144.90,66.57 144.00,65.93 C144.71,66.34 145.45,66.81 146.22,67.32 C151.14,70.60 155.20,76.75 156.49,82.85 C156.64,83.52 156.72,84.20 156.74,84.91 L 151.57 85.12 L 145.86 85.35 L 143.46 90.09 C142.14,92.69 139.74,95.76 138.12,96.91 C137.13,97.62 135.99,98.15 134.79,98.51 C136.42,97.94 137.96,97.02 139.32,95.74 C143.08,92.19 144.99,86.97 144.99,80.18 C145.00,74.09 143.63,72.00 139.61,72.00 C139.07,72.00 138.50,72.07 137.90,72.21 C138.14,71.21 135.77,72.46 132.53,74.80 C130.26,76.33 127.63,78.52 124.50,81.45 C117.81,87.72 110.81,92.09 109.36,90.89 C108.42,90.11 108.24,90.54 108.61,92.95 C108.39,92.24 108.11,91.54 107.75,90.86 C106.71,88.89 105.71,88.50 101.75,88.48 C97.03,88.45 97.00,88.48 97.00,91.78 C97.00,92.40 96.96,93.00 96.89,93.58 C96.89,93.38 96.88,93.18 96.88,92.98 ZM 10.00 47.00 C7.22,44.22 7.42,39.48 10.45,36.45 C13.45,33.45 16.87,33.32 20.37,36.07 C23.62,38.63 24.06,44.74 21.17,47.35 C18.60,49.67 12.48,49.48 10.00,47.00 ZM 132.18 40.24 L 129.07 43.72 C123.95,49.42 119.50,51.81 115.00,50.97 C115.13,50.98 115.26,50.99 115.39,50.98 C117.45,50.97 118.05,50.69 117.18,50.13 C116.25,49.54 116.06,48.20 116.54,45.63 C116.98,43.29 116.96,42.26 116.01,41.17 L 119.37 44.04 L 123.17 40.33 L 126.45 37.14 C126.55,37.56 126.56,37.90 126.43,38.11 C125.99,38.82 126.11,39.05 126.72,38.67 C127.51,38.18 129.76,38.92 132.18,40.24 ZM 206.82 125.13 C202.71,121.46 202.30,115.80 205.91,112.87 C210.30,109.32 211.00,110.24 211.00,119.50 C211.00,124.18 210.78,128.00 210.52,128.00 C210.25,128.00 208.58,126.71 206.82,125.13 ZM 126.00 62.19 C124.62,61.98 123.05,61.46 122.50,61.04 C121.95,60.62 120.15,59.96 118.50,59.57 C118.31,59.52 118.12,59.47 117.92,59.41 C121.38,59.87 127.13,58.98 130.49,57.29 C134.38,55.33 139.23,50.69 139.92,48.41 C139.89,49.37 139.41,50.24 138.48,51.02 C137.64,51.71 137.20,53.07 137.51,54.03 C137.86,55.15 136.99,56.86 135.09,58.76 C131.84,62.01 129.83,62.76 126.00,62.19 ZM 58.33 95.91 C57.58,94.93 56.86,93.93 56.19,92.93 C53.89,89.50 52.00,86.31 52.00,85.84 C52.00,83.73 54.70,85.44 59.11,90.34 C61.66,93.17 65.78,96.24 70.04,98.75 C66.63,96.89 63.40,94.81 61.33,92.98 C58.62,90.61 57.53,90.14 56.93,91.12 C56.34,92.07 56.95,93.80 58.33,95.91 ZM 176.36 86.50 C175.57,84.44 176.64,82.00 178.35,82.00 C179.12,82.00 180.32,82.68 181.00,83.50 C181.99,84.70 181.99,85.30 181.00,86.50 C180.32,87.32 179.12,88.00 178.35,88.00 C177.57,88.00 176.68,87.32 176.36,86.50 ZM 38.06 91.04 C36.15,89.86 37.23,86.50 39.51,86.50 C40.78,86.50 41.61,87.27 41.80,88.62 C42.13,90.94 40.06,92.27 38.06,91.04 ZM 128.05 142.56 C126.53,140.72 127.50,139.00 130.06,139.00 C132.30,139.00 132.63,141.23 130.63,142.89 C129.59,143.75 128.97,143.67 128.05,142.56 ZM 173.00 14.56 C173.00,13.77 173.36,12.90 173.80,12.62 C175.08,11.83 177.32,13.67 176.57,14.89 C175.58,16.49 173.00,16.26 173.00,14.56 ZM 136.62 81.20 C136.35,80.76 136.53,79.75 137.02,78.96 C137.70,77.87 138.20,77.80 139.07,78.67 C139.71,79.31 139.92,80.31 139.55,80.91 C138.76,82.19 137.32,82.33 136.62,81.20 ZM 22.64 86.31 C21.51,85.18 21.95,84.00 23.50,84.00 C24.33,84.00 25.00,84.42 25.00,84.94 C25.00,86.20 23.44,87.11 22.64,86.31 ZM 24.00 55.53 C24.00,54.64 24.59,54.29 25.50,54.64 C26.33,54.95 27.00,55.62 27.00,56.11 C27.00,56.60 26.33,57.00 25.50,57.00 C24.67,57.00 24.00,56.34 24.00,55.53 ZM 113.00 108.00 C113.00,107.45 113.68,107.00 114.50,107.00 C115.32,107.00 116.00,107.45 116.00,108.00 C116.00,108.55 115.32,109.00 114.50,109.00 C113.68,109.00 113.00,108.55 113.00,108.00 ZM 154.00 57.00 C154.00,56.45 154.70,56.00 155.56,56.00 C156.42,56.00 156.84,56.45 156.50,57.00 C156.16,57.55 155.46,58.00 154.94,58.00 C154.42,58.00 154.00,57.55 154.00,57.00 ZM 132.67 106.64 C137.73,107.11 142.50,105.91 146.47,103.39 C144.76,104.59 142.94,105.50 141.07,105.99 C137.83,106.86 135.16,107.11 132.67,106.64 ZM 103.48 62.86 C103.07,58.84 101.10,54.48 98.03,51.07 C101.24,54.39 103.18,58.57 103.48,62.86 ZM 104.94 107.42 L 103.92 108.57 C101.89,110.71 99.29,112.39 96.28,113.42 C95.82,113.58 95.38,113.72 94.94,113.85 C95.33,113.73 95.72,113.60 96.11,113.46 C100.57,111.89 104.17,108.84 106.45,105.23 C106.00,105.99 105.50,106.72 104.94,107.42 ZM 124.32 33.20 C122.20,30.49 120.91,29.26 119.51,29.35 C119.85,29.24 120.13,29.22 120.33,29.30 C121.44,29.72 123.03,31.40 124.32,33.20 ZM 115.20 32.30 C113.52,33.98 112.18,35.72 112.02,36.44 C112.18,35.46 113.57,33.79 115.20,32.30 ZM 112.00 36.59 C112.03,37.12 113.08,38.45 114.51,39.83 C113.12,38.71 112.00,37.28 112.00,36.62 C112.00,36.61 112.00,36.60 112.00,36.59 ZM 121.25 95.65 C119.92,94.86 118.69,94.32 118.04,94.25 C118.45,94.12 119.48,94.53 121.13,95.55 C121.17,95.58 121.21,95.61 121.25,95.65 ZM 135.20 63.36 C133.58,63.43 131.91,63.74 130.21,64.31 C130.63,64.13 131.01,64.00 131.32,63.91 C132.58,63.57 133.90,63.39 135.20,63.36 ZM 121.13 98.99 C122.53,100.41 124.17,101.92 125.70,103.21 C124.64,102.38 123.54,101.40 122.38,100.26 C121.93,99.81 121.52,99.39 121.13,98.99 ZM 139.38 46.42 C138.83,45.56 137.97,44.53 136.97,43.57 C137.06,43.66 137.16,43.74 137.25,43.83 C138.23,44.73 138.94,45.60 139.38,46.42 ZM 77.85 112.49 C75.54,111.53 72.98,109.98 70.38,108.00 C72.96,109.93 75.56,111.53 77.85,112.49 ZM 87.78 114.82 C85.24,114.72 82.58,114.13 79.39,113.06 C82.56,114.12 85.24,114.71 87.78,114.82 ZM 104.66 50.66 C105.14,51.18 105.68,51.72 106.27,52.27 C105.68,51.73 105.14,51.19 104.66,50.66 Z" fill="rgb(130,94,43)"/>
<path d="M 78.80 112.85 C69.75,109.70 54.69,94.73 56.93,91.12 C57.53,90.14 58.62,90.61 61.33,92.98 C66.63,97.64 79.48,104.00 83.59,104.00 C91.60,104.00 97.00,99.08 97.00,91.78 C97.00,88.48 97.03,88.45 101.75,88.48 C105.71,88.50 106.71,88.89 107.75,90.86 C111.93,98.76 106.19,109.91 96.11,113.46 C90.44,115.46 85.82,115.30 78.80,112.85 ZM 130.30 106.30 C127.69,105.79 116.17,94.78 117.71,94.26 C118.30,94.07 120.46,95.05 122.53,96.45 C127.33,99.71 133.92,99.91 138.12,96.91 C139.74,95.76 142.14,92.69 143.46,90.09 L 145.86 85.35 L 151.57 85.12 L 157.27 84.89 L 156.65 88.02 C154.07,100.91 142.81,108.73 130.30,106.30 ZM 76.70 75.36 C75.59,74.26 75.89,73.00 77.25,73.00 C79.56,73.00 90.48,67.30 92.48,65.06 C93.74,63.64 94.45,61.41 94.45,58.87 C94.45,52.43 90.66,51.36 82.45,55.48 C79.73,56.85 76.06,59.33 74.30,60.98 C72.55,62.64 70.69,64.00 70.17,64.00 C69.66,64.00 67.56,61.95 65.51,59.45 C62.00,55.16 61.88,54.79 63.45,53.06 C64.36,52.05 67.90,49.73 71.31,47.91 C78.67,43.98 85.29,43.48 91.71,46.37 C102.01,51.01 107.21,65.83 100.64,71.80 C98.99,73.30 96.37,73.90 89.24,74.41 C84.14,74.78 79.39,75.30 78.68,75.57 C77.97,75.84 77.08,75.75 76.70,75.36 ZM 121.69 69.20 C130.74,61.78 140.33,61.40 146.55,68.20 C148.17,69.97 148.70,70.81 147.72,70.06 C146.35,69.02 145.42,68.96 143.72,69.81 C142.50,70.42 136.41,71.05 130.19,71.21 L 118.88 71.50 L 121.69 69.20 ZM 116.20 58.99 C111.62,57.08 105.14,51.96 103.09,48.65 C98.92,41.89 101.07,41.13 107.74,47.00 C115.00,53.39 121.25,52.43 129.07,43.72 L 132.63 39.74 L 136.32 42.97 C138.34,44.75 140.00,46.97 140.00,47.91 C140.00,49.94 134.69,55.18 130.49,57.29 C126.48,59.30 119.06,60.19 116.20,58.99 ZM 115.69 40.89 C113.66,39.16 112.00,37.22 112.00,36.57 C112.00,35.92 113.59,33.85 115.53,31.97 C119.48,28.14 120.58,28.34 124.65,33.62 L 126.97 36.63 L 123.17 40.33 L 119.37 44.04 L 115.69 40.89 Z" fill="rgb(233,207,114)"/>
</g>
</svg>